<mxfile host="app.diagrams.net" agent="Mozilla/5.0 (Windows NT 10.0; Win64; x64) AppleWebKit/537.36 (KHTML, like Gecko) Chrome/138.0.0.0 Safari/537.36" version="28.1.0">
  <diagram name="Page-1" id="-zcWe5Lp7b_EXOkVILJz">
    <mxGraphModel dx="1305" dy="1779" grid="1" gridSize="10" guides="1" tooltips="1" connect="1" arrows="1" fold="1" page="1" pageScale="1" pageWidth="827" pageHeight="1169" math="0" shadow="0">
      <root>
        <mxCell id="0" />
        <mxCell id="1" parent="0" />
        <mxCell id="NnQS1V-7ankwr3iiXwla-4" style="edgeStyle=orthogonalEdgeStyle;rounded=0;orthogonalLoop=1;jettySize=auto;html=1;exitX=1;exitY=0.5;exitDx=0;exitDy=0;entryX=0;entryY=0.5;entryDx=0;entryDy=0;endArrow=none;endFill=0;" parent="1" source="NnQS1V-7ankwr3iiXwla-1" target="NnQS1V-7ankwr3iiXwla-2" edge="1">
          <mxGeometry relative="1" as="geometry" />
        </mxCell>
        <mxCell id="NnQS1V-7ankwr3iiXwla-11" style="edgeStyle=orthogonalEdgeStyle;rounded=0;orthogonalLoop=1;jettySize=auto;html=1;exitX=0.25;exitY=1;exitDx=0;exitDy=0;endArrow=oval;endFill=1;" parent="1" source="NnQS1V-7ankwr3iiXwla-1" target="NnQS1V-7ankwr3iiXwla-10" edge="1">
          <mxGeometry relative="1" as="geometry" />
        </mxCell>
        <mxCell id="NnQS1V-7ankwr3iiXwla-12" style="edgeStyle=orthogonalEdgeStyle;rounded=0;orthogonalLoop=1;jettySize=auto;html=1;exitX=0.5;exitY=1;exitDx=0;exitDy=0;endArrow=oval;endFill=0;" parent="1" source="NnQS1V-7ankwr3iiXwla-1" edge="1">
          <mxGeometry relative="1" as="geometry">
            <mxPoint x="20" y="300" as="targetPoint" />
          </mxGeometry>
        </mxCell>
        <mxCell id="NnQS1V-7ankwr3iiXwla-13" value="Nome" style="edgeLabel;html=1;align=center;verticalAlign=middle;resizable=0;points=[];" parent="NnQS1V-7ankwr3iiXwla-12" vertex="1" connectable="0">
          <mxGeometry x="0.8894" relative="1" as="geometry">
            <mxPoint y="26" as="offset" />
          </mxGeometry>
        </mxCell>
        <mxCell id="EbeZceaRJz07NSsJpg0z-23" style="edgeStyle=orthogonalEdgeStyle;rounded=0;orthogonalLoop=1;jettySize=auto;html=1;exitX=1;exitY=0.75;exitDx=0;exitDy=0;entryX=0;entryY=0.5;entryDx=0;entryDy=0;endArrow=none;endFill=0;" edge="1" parent="1" source="NnQS1V-7ankwr3iiXwla-1" target="EbeZceaRJz07NSsJpg0z-21">
          <mxGeometry relative="1" as="geometry" />
        </mxCell>
        <mxCell id="NnQS1V-7ankwr3iiXwla-1" value="Utente" style="rounded=0;whiteSpace=wrap;html=1;" parent="1" vertex="1">
          <mxGeometry x="-20" y="220" width="80" height="40" as="geometry" />
        </mxCell>
        <mxCell id="NnQS1V-7ankwr3iiXwla-29" style="edgeStyle=orthogonalEdgeStyle;rounded=0;orthogonalLoop=1;jettySize=auto;html=1;exitX=0.5;exitY=0;exitDx=0;exitDy=0;endArrow=oval;endFill=0;" parent="1" source="NnQS1V-7ankwr3iiXwla-2" edge="1">
          <mxGeometry relative="1" as="geometry">
            <mxPoint x="241.68965517241384" y="170" as="targetPoint" />
          </mxGeometry>
        </mxCell>
        <mxCell id="NnQS1V-7ankwr3iiXwla-2" value="Pertecipazione" style="rhombus;whiteSpace=wrap;html=1;" parent="1" vertex="1">
          <mxGeometry x="194" y="207.5" width="96" height="65" as="geometry" />
        </mxCell>
        <mxCell id="EbeZceaRJz07NSsJpg0z-22" style="edgeStyle=orthogonalEdgeStyle;rounded=0;orthogonalLoop=1;jettySize=auto;html=1;exitX=0;exitY=0.75;exitDx=0;exitDy=0;entryX=1;entryY=0.5;entryDx=0;entryDy=0;endArrow=none;endFill=0;" edge="1" parent="1" source="NnQS1V-7ankwr3iiXwla-3" target="EbeZceaRJz07NSsJpg0z-21">
          <mxGeometry relative="1" as="geometry" />
        </mxCell>
        <mxCell id="NnQS1V-7ankwr3iiXwla-3" value="Call" style="rounded=0;whiteSpace=wrap;html=1;" parent="1" vertex="1">
          <mxGeometry x="350" y="220" width="80" height="40" as="geometry" />
        </mxCell>
        <mxCell id="NnQS1V-7ankwr3iiXwla-5" style="edgeStyle=orthogonalEdgeStyle;rounded=0;orthogonalLoop=1;jettySize=auto;html=1;exitX=1;exitY=0.5;exitDx=0;exitDy=0;entryX=0;entryY=0.5;entryDx=0;entryDy=0;endArrow=none;endFill=0;" parent="1" source="NnQS1V-7ankwr3iiXwla-2" target="NnQS1V-7ankwr3iiXwla-3" edge="1">
          <mxGeometry relative="1" as="geometry">
            <mxPoint x="260" y="310" as="sourcePoint" />
            <mxPoint x="310" y="310" as="targetPoint" />
          </mxGeometry>
        </mxCell>
        <mxCell id="NnQS1V-7ankwr3iiXwla-6" value="0..N" style="text;html=1;align=center;verticalAlign=middle;resizable=0;points=[];autosize=1;strokeColor=none;fillColor=none;" parent="1" vertex="1">
          <mxGeometry x="50" y="215" width="50" height="30" as="geometry" />
        </mxCell>
        <mxCell id="NnQS1V-7ankwr3iiXwla-7" value="1..N" style="text;html=1;align=center;verticalAlign=middle;resizable=0;points=[];autosize=1;strokeColor=none;fillColor=none;" parent="1" vertex="1">
          <mxGeometry x="284" y="215" width="50" height="30" as="geometry" />
        </mxCell>
        <mxCell id="NnQS1V-7ankwr3iiXwla-10" value="Id" style="text;html=1;align=center;verticalAlign=middle;resizable=0;points=[];autosize=1;strokeColor=none;fillColor=none;" parent="1" vertex="1">
          <mxGeometry x="-30" y="290" width="30" height="30" as="geometry" />
        </mxCell>
        <mxCell id="NnQS1V-7ankwr3iiXwla-14" style="edgeStyle=orthogonalEdgeStyle;rounded=0;orthogonalLoop=1;jettySize=auto;html=1;exitX=0.5;exitY=1;exitDx=0;exitDy=0;endArrow=oval;endFill=0;" parent="1" edge="1">
          <mxGeometry relative="1" as="geometry">
            <mxPoint x="50" y="320" as="targetPoint" />
            <mxPoint x="50" y="260" as="sourcePoint" />
          </mxGeometry>
        </mxCell>
        <mxCell id="NnQS1V-7ankwr3iiXwla-15" value="Email" style="edgeLabel;html=1;align=center;verticalAlign=middle;resizable=0;points=[];" parent="NnQS1V-7ankwr3iiXwla-14" vertex="1" connectable="0">
          <mxGeometry x="0.8894" relative="1" as="geometry">
            <mxPoint y="27" as="offset" />
          </mxGeometry>
        </mxCell>
        <mxCell id="NnQS1V-7ankwr3iiXwla-18" style="edgeStyle=orthogonalEdgeStyle;rounded=0;orthogonalLoop=1;jettySize=auto;html=1;exitX=0.25;exitY=1;exitDx=0;exitDy=0;endArrow=oval;endFill=1;" parent="1" source="NnQS1V-7ankwr3iiXwla-3" target="NnQS1V-7ankwr3iiXwla-19" edge="1">
          <mxGeometry relative="1" as="geometry">
            <mxPoint x="340" y="380" as="sourcePoint" />
          </mxGeometry>
        </mxCell>
        <mxCell id="NnQS1V-7ankwr3iiXwla-19" value="Id" style="text;html=1;align=center;verticalAlign=middle;resizable=0;points=[];autosize=1;strokeColor=none;fillColor=none;" parent="1" vertex="1">
          <mxGeometry x="350" y="290" width="30" height="30" as="geometry" />
        </mxCell>
        <mxCell id="NnQS1V-7ankwr3iiXwla-20" style="edgeStyle=orthogonalEdgeStyle;rounded=0;orthogonalLoop=1;jettySize=auto;html=1;exitX=0.5;exitY=1;exitDx=0;exitDy=0;endArrow=oval;endFill=0;" parent="1" edge="1">
          <mxGeometry relative="1" as="geometry">
            <mxPoint x="389.66" y="312.5" as="targetPoint" />
            <mxPoint x="390.16" y="260" as="sourcePoint" />
          </mxGeometry>
        </mxCell>
        <mxCell id="NnQS1V-7ankwr3iiXwla-21" value="Tipo" style="edgeLabel;html=1;align=center;verticalAlign=middle;resizable=0;points=[];" parent="NnQS1V-7ankwr3iiXwla-20" vertex="1" connectable="0">
          <mxGeometry x="0.8894" relative="1" as="geometry">
            <mxPoint x="-10" y="26" as="offset" />
          </mxGeometry>
        </mxCell>
        <mxCell id="NnQS1V-7ankwr3iiXwla-23" style="edgeStyle=orthogonalEdgeStyle;rounded=0;orthogonalLoop=1;jettySize=auto;html=1;exitX=0.75;exitY=1;exitDx=0;exitDy=0;endArrow=oval;endFill=0;" parent="1" source="NnQS1V-7ankwr3iiXwla-3" edge="1">
          <mxGeometry relative="1" as="geometry">
            <mxPoint x="410" y="350" as="targetPoint" />
            <mxPoint x="480.5" y="340" as="sourcePoint" />
          </mxGeometry>
        </mxCell>
        <mxCell id="NnQS1V-7ankwr3iiXwla-24" value="Data creazione&lt;br&gt;richiesta" style="edgeLabel;html=1;align=center;verticalAlign=middle;resizable=0;points=[];" parent="NnQS1V-7ankwr3iiXwla-23" vertex="1" connectable="0">
          <mxGeometry x="0.8894" relative="1" as="geometry">
            <mxPoint y="27" as="offset" />
          </mxGeometry>
        </mxCell>
        <mxCell id="NnQS1V-7ankwr3iiXwla-25" style="edgeStyle=orthogonalEdgeStyle;rounded=0;orthogonalLoop=1;jettySize=auto;html=1;exitX=1;exitY=1;exitDx=0;exitDy=0;endArrow=oval;endFill=0;" parent="1" source="NnQS1V-7ankwr3iiXwla-3" edge="1">
          <mxGeometry relative="1" as="geometry">
            <mxPoint x="450" y="310" as="targetPoint" />
            <mxPoint x="550.5" y="360" as="sourcePoint" />
          </mxGeometry>
        </mxCell>
        <mxCell id="NnQS1V-7ankwr3iiXwla-26" value="Data/ora&amp;nbsp;&lt;div&gt;call&lt;/div&gt;" style="edgeLabel;html=1;align=center;verticalAlign=middle;resizable=0;points=[];" parent="NnQS1V-7ankwr3iiXwla-25" vertex="1" connectable="0">
          <mxGeometry x="0.8894" relative="1" as="geometry">
            <mxPoint y="26" as="offset" />
          </mxGeometry>
        </mxCell>
        <mxCell id="NnQS1V-7ankwr3iiXwla-27" style="edgeStyle=orthogonalEdgeStyle;rounded=0;orthogonalLoop=1;jettySize=auto;html=1;exitX=1;exitY=0.75;exitDx=0;exitDy=0;endArrow=oval;endFill=0;" parent="1" source="NnQS1V-7ankwr3iiXwla-3" edge="1">
          <mxGeometry relative="1" as="geometry">
            <mxPoint x="500" y="270" as="targetPoint" />
            <mxPoint x="590" y="310" as="sourcePoint" />
          </mxGeometry>
        </mxCell>
        <mxCell id="NnQS1V-7ankwr3iiXwla-28" value="Stato di &lt;br&gt;avanzamento" style="edgeLabel;html=1;align=center;verticalAlign=middle;resizable=0;points=[];" parent="NnQS1V-7ankwr3iiXwla-27" vertex="1" connectable="0">
          <mxGeometry x="0.8894" relative="1" as="geometry">
            <mxPoint y="26" as="offset" />
          </mxGeometry>
        </mxCell>
        <mxCell id="NnQS1V-7ankwr3iiXwla-31" style="edgeStyle=orthogonalEdgeStyle;rounded=0;orthogonalLoop=1;jettySize=auto;html=1;exitX=0.25;exitY=0;exitDx=0;exitDy=0;endArrow=oval;endFill=0;" parent="1" source="NnQS1V-7ankwr3iiXwla-3" edge="1">
          <mxGeometry relative="1" as="geometry">
            <mxPoint x="370" y="170" as="targetPoint" />
            <mxPoint x="540" y="260" as="sourcePoint" />
          </mxGeometry>
        </mxCell>
        <mxCell id="NnQS1V-7ankwr3iiXwla-32" value="Durata" style="edgeLabel;html=1;align=center;verticalAlign=middle;resizable=0;points=[];" parent="NnQS1V-7ankwr3iiXwla-31" vertex="1" connectable="0">
          <mxGeometry x="0.8894" relative="1" as="geometry">
            <mxPoint y="-20" as="offset" />
          </mxGeometry>
        </mxCell>
        <mxCell id="NnQS1V-7ankwr3iiXwla-34" style="edgeStyle=orthogonalEdgeStyle;rounded=0;orthogonalLoop=1;jettySize=auto;html=1;exitX=0.5;exitY=0;exitDx=0;exitDy=0;endArrow=oval;endFill=0;" parent="1" source="NnQS1V-7ankwr3iiXwla-3" edge="1">
          <mxGeometry relative="1" as="geometry">
            <mxPoint x="410" y="200" as="targetPoint" />
            <mxPoint x="500" y="240" as="sourcePoint" />
          </mxGeometry>
        </mxCell>
        <mxCell id="NnQS1V-7ankwr3iiXwla-35" value="Deadline" style="edgeLabel;html=1;align=center;verticalAlign=middle;resizable=0;points=[];" parent="NnQS1V-7ankwr3iiXwla-34" vertex="1" connectable="0">
          <mxGeometry x="0.8894" relative="1" as="geometry">
            <mxPoint y="-20" as="offset" />
          </mxGeometry>
        </mxCell>
        <mxCell id="NnQS1V-7ankwr3iiXwla-36" style="edgeStyle=orthogonalEdgeStyle;rounded=0;orthogonalLoop=1;jettySize=auto;html=1;exitX=1;exitY=0.25;exitDx=0;exitDy=0;endArrow=oval;endFill=0;" parent="1" source="NnQS1V-7ankwr3iiXwla-3" edge="1">
          <mxGeometry relative="1" as="geometry">
            <mxPoint x="500" y="230" as="targetPoint" />
            <mxPoint x="570" y="290" as="sourcePoint" />
          </mxGeometry>
        </mxCell>
        <mxCell id="NnQS1V-7ankwr3iiXwla-37" value="Link Meet" style="edgeLabel;html=1;align=center;verticalAlign=middle;resizable=0;points=[];" parent="NnQS1V-7ankwr3iiXwla-36" vertex="1" connectable="0">
          <mxGeometry x="0.8894" relative="1" as="geometry">
            <mxPoint x="34" as="offset" />
          </mxGeometry>
        </mxCell>
        <mxCell id="NnQS1V-7ankwr3iiXwla-38" style="edgeStyle=orthogonalEdgeStyle;rounded=0;orthogonalLoop=1;jettySize=auto;html=1;exitX=0.893;exitY=0.008;exitDx=0;exitDy=0;endArrow=oval;endFill=0;exitPerimeter=0;" parent="1" source="NnQS1V-7ankwr3iiXwla-3" edge="1">
          <mxGeometry relative="1" as="geometry">
            <mxPoint x="470" y="200" as="targetPoint" />
            <mxPoint x="530" y="190" as="sourcePoint" />
            <Array as="points">
              <mxPoint x="421" y="200" />
            </Array>
          </mxGeometry>
        </mxCell>
        <mxCell id="NnQS1V-7ankwr3iiXwla-39" value="Note" style="edgeLabel;html=1;align=center;verticalAlign=middle;resizable=0;points=[];" parent="NnQS1V-7ankwr3iiXwla-38" vertex="1" connectable="0">
          <mxGeometry x="0.8894" relative="1" as="geometry">
            <mxPoint x="34" as="offset" />
          </mxGeometry>
        </mxCell>
        <mxCell id="EbeZceaRJz07NSsJpg0z-3" style="edgeStyle=orthogonalEdgeStyle;rounded=0;orthogonalLoop=1;jettySize=auto;html=1;exitX=0.348;exitY=1.005;exitDx=0;exitDy=0;endArrow=oval;endFill=0;exitPerimeter=0;" edge="1" parent="1" source="NnQS1V-7ankwr3iiXwla-1">
          <mxGeometry relative="1" as="geometry">
            <mxPoint y="370" as="targetPoint" />
            <mxPoint y="330" as="sourcePoint" />
          </mxGeometry>
        </mxCell>
        <mxCell id="EbeZceaRJz07NSsJpg0z-4" value="Password" style="edgeLabel;html=1;align=center;verticalAlign=middle;resizable=0;points=[];" vertex="1" connectable="0" parent="EbeZceaRJz07NSsJpg0z-3">
          <mxGeometry x="0.8894" relative="1" as="geometry">
            <mxPoint y="26" as="offset" />
          </mxGeometry>
        </mxCell>
        <mxCell id="EbeZceaRJz07NSsJpg0z-5" style="edgeStyle=orthogonalEdgeStyle;rounded=0;orthogonalLoop=1;jettySize=auto;html=1;exitX=0.638;exitY=0.985;exitDx=0;exitDy=0;endArrow=oval;endFill=0;exitPerimeter=0;" edge="1" parent="1" source="NnQS1V-7ankwr3iiXwla-1">
          <mxGeometry relative="1" as="geometry">
            <mxPoint x="30" y="360" as="targetPoint" />
            <mxPoint x="90" y="400" as="sourcePoint" />
          </mxGeometry>
        </mxCell>
        <mxCell id="EbeZceaRJz07NSsJpg0z-6" value="Salt" style="edgeLabel;html=1;align=center;verticalAlign=middle;resizable=0;points=[];" vertex="1" connectable="0" parent="EbeZceaRJz07NSsJpg0z-5">
          <mxGeometry x="0.8894" relative="1" as="geometry">
            <mxPoint y="26" as="offset" />
          </mxGeometry>
        </mxCell>
        <mxCell id="EbeZceaRJz07NSsJpg0z-7" style="edgeStyle=orthogonalEdgeStyle;rounded=0;orthogonalLoop=1;jettySize=auto;html=1;exitX=0;exitY=0.75;exitDx=0;exitDy=0;endArrow=oval;endFill=0;" edge="1" parent="1" source="NnQS1V-7ankwr3iiXwla-1">
          <mxGeometry relative="1" as="geometry">
            <mxPoint x="-70" y="320" as="targetPoint" />
            <mxPoint x="160" y="430" as="sourcePoint" />
          </mxGeometry>
        </mxCell>
        <mxCell id="EbeZceaRJz07NSsJpg0z-8" value="Tipo" style="edgeLabel;html=1;align=center;verticalAlign=middle;resizable=0;points=[];" vertex="1" connectable="0" parent="EbeZceaRJz07NSsJpg0z-7">
          <mxGeometry x="0.8894" relative="1" as="geometry">
            <mxPoint y="26" as="offset" />
          </mxGeometry>
        </mxCell>
        <mxCell id="EbeZceaRJz07NSsJpg0z-9" style="edgeStyle=orthogonalEdgeStyle;rounded=0;orthogonalLoop=1;jettySize=auto;html=1;exitX=0;exitY=0.5;exitDx=0;exitDy=0;endArrow=oval;endFill=0;" edge="1" parent="1" source="NnQS1V-7ankwr3iiXwla-1">
          <mxGeometry relative="1" as="geometry">
            <mxPoint x="-110" y="280" as="targetPoint" />
            <mxPoint x="60" y="390" as="sourcePoint" />
          </mxGeometry>
        </mxCell>
        <mxCell id="EbeZceaRJz07NSsJpg0z-10" value="Username" style="edgeLabel;html=1;align=center;verticalAlign=middle;resizable=0;points=[];" vertex="1" connectable="0" parent="EbeZceaRJz07NSsJpg0z-9">
          <mxGeometry x="0.8894" relative="1" as="geometry">
            <mxPoint y="26" as="offset" />
          </mxGeometry>
        </mxCell>
        <mxCell id="EbeZceaRJz07NSsJpg0z-14" style="edgeStyle=orthogonalEdgeStyle;rounded=0;orthogonalLoop=1;jettySize=auto;html=1;exitX=0.5;exitY=0;exitDx=0;exitDy=0;entryX=0.5;entryY=1;entryDx=0;entryDy=0;endArrow=none;endFill=0;" edge="1" parent="1" target="EbeZceaRJz07NSsJpg0z-15" source="NnQS1V-7ankwr3iiXwla-1">
          <mxGeometry relative="1" as="geometry">
            <mxPoint x="170" y="215" as="sourcePoint" />
          </mxGeometry>
        </mxCell>
        <mxCell id="EbeZceaRJz07NSsJpg0z-19" style="edgeStyle=orthogonalEdgeStyle;rounded=0;orthogonalLoop=1;jettySize=auto;html=1;exitX=0.5;exitY=0;exitDx=0;exitDy=0;entryX=0.5;entryY=1;entryDx=0;entryDy=0;endArrow=none;endFill=0;" edge="1" parent="1" source="EbeZceaRJz07NSsJpg0z-15" target="EbeZceaRJz07NSsJpg0z-18">
          <mxGeometry relative="1" as="geometry" />
        </mxCell>
        <mxCell id="EbeZceaRJz07NSsJpg0z-15" value="Pertecipazione" style="rhombus;whiteSpace=wrap;html=1;" vertex="1" parent="1">
          <mxGeometry x="-28" y="70" width="96" height="65" as="geometry" />
        </mxCell>
        <mxCell id="EbeZceaRJz07NSsJpg0z-16" value="0...1" style="text;html=1;align=center;verticalAlign=middle;resizable=0;points=[];autosize=1;strokeColor=none;fillColor=none;" vertex="1" parent="1">
          <mxGeometry x="10" y="190" width="50" height="30" as="geometry" />
        </mxCell>
        <mxCell id="EbeZceaRJz07NSsJpg0z-17" value="0...1" style="text;html=1;align=center;verticalAlign=middle;resizable=0;points=[];autosize=1;strokeColor=none;fillColor=none;" vertex="1" parent="1">
          <mxGeometry x="10" y="-10" width="50" height="30" as="geometry" />
        </mxCell>
        <mxCell id="EbeZceaRJz07NSsJpg0z-18" value="OAuth_User_Tokens" style="rounded=0;whiteSpace=wrap;html=1;" vertex="1" parent="1">
          <mxGeometry x="-50" y="-50" width="140" height="40" as="geometry" />
        </mxCell>
        <mxCell id="EbeZceaRJz07NSsJpg0z-21" value="Disponibilità" style="rhombus;whiteSpace=wrap;html=1;" vertex="1" parent="1">
          <mxGeometry x="194" y="380" width="96" height="65" as="geometry" />
        </mxCell>
        <mxCell id="EbeZceaRJz07NSsJpg0z-24" value="Diversi dati" style="text;html=1;align=center;verticalAlign=middle;resizable=0;points=[];autosize=1;strokeColor=none;fillColor=none;" vertex="1" parent="1">
          <mxGeometry x="200" y="138" width="80" height="30" as="geometry" />
        </mxCell>
        <mxCell id="EbeZceaRJz07NSsJpg0z-25" style="edgeStyle=orthogonalEdgeStyle;rounded=0;orthogonalLoop=1;jettySize=auto;html=1;exitX=0.5;exitY=1;exitDx=0;exitDy=0;endArrow=oval;endFill=0;" edge="1" parent="1" source="EbeZceaRJz07NSsJpg0z-21">
          <mxGeometry relative="1" as="geometry">
            <mxPoint x="271.68965517241384" y="492" as="targetPoint" />
            <mxPoint x="272" y="530" as="sourcePoint" />
          </mxGeometry>
        </mxCell>
        <mxCell id="EbeZceaRJz07NSsJpg0z-26" value="Diversi dati" style="text;html=1;align=center;verticalAlign=middle;resizable=0;points=[];autosize=1;strokeColor=none;fillColor=none;" vertex="1" parent="1">
          <mxGeometry x="230" y="490" width="80" height="30" as="geometry" />
        </mxCell>
        <mxCell id="EbeZceaRJz07NSsJpg0z-27" style="edgeStyle=orthogonalEdgeStyle;rounded=0;orthogonalLoop=1;jettySize=auto;html=1;exitX=1;exitY=0.5;exitDx=0;exitDy=0;endArrow=oval;endFill=0;entryX=0.558;entryY=0;entryDx=0;entryDy=0;entryPerimeter=0;" edge="1" parent="1" source="EbeZceaRJz07NSsJpg0z-18" target="EbeZceaRJz07NSsJpg0z-28">
          <mxGeometry relative="1" as="geometry">
            <mxPoint x="161.68965517241384" y="-78" as="targetPoint" />
            <mxPoint x="162" y="-40" as="sourcePoint" />
          </mxGeometry>
        </mxCell>
        <mxCell id="EbeZceaRJz07NSsJpg0z-28" value="Diversi dati" style="text;html=1;align=center;verticalAlign=middle;resizable=0;points=[];autosize=1;strokeColor=none;fillColor=none;" vertex="1" parent="1">
          <mxGeometry x="100" y="20" width="80" height="30" as="geometry" />
        </mxCell>
      </root>
    </mxGraphModel>
  </diagram>
</mxfile>
